<?xml version="1.0" encoding="UTF-8"?>
<svg width="256" height="256" data-name="Layer 1" version="1.1" viewBox="0 0 256 256" xml:space="preserve" xmlns="http://www.w3.org/2000/svg" xmlns:xlink="http://www.w3.org/1999/xlink"><defs><linearGradient id="swatch4"><stop stop-color="#ff9cce" offset="0"/></linearGradient><style>.cls-1{fill:#d5d5d5;}.cls-2{fill:#e23229;}</style><linearGradient id="linearGradient4" x1="133.4" x2="222.83" y1="38.021" y2="38.021" gradientUnits="userSpaceOnUse" xlink:href="#swatch4"/><linearGradient id="linearGradient10" x1="133.4" x2="222.83" y1="38.021" y2="38.021" gradientTransform="translate(-90.781 6.3477)" gradientUnits="userSpaceOnUse" xlink:href="#swatch4"/></defs><title>Logo</title><g fill="#fff" stroke="#fff" stroke-width="8"><path d="m52.016 33.34 76.285-5.3242-9.6719 46.18-27 1.8789 3.8906-18.797-22.25 1.5586-5.9727 28.449 49.238-3.4453-19.359 92.422-76.23 5.3203 10.715-50.602 27.184-1.8945-4.9336 23.211 22.043-1.5547 8.0391-37.656-49.242 3.4492z"/><path d="m142.82 26.824 76.285-5.3242-9.6719 46.18-27 1.8789 3.8906-18.797-22.25 1.5586-5.9727 28.449 49.238-3.4453-19.359 92.422-76.23 5.3203 10.715-50.602 27.184-1.8945-4.9336 23.211 22.043-1.5547 8.0391-37.656-49.242 3.4492z"/></g><g><path d="m142.84 26.996 76.242-5.3281-5.7539 27.395-76.188 5.3125z" fill="url(#linearGradient4)"/><path d="m137.14 54.375 26.895-1.8789-5.9688 28.441-26.836 1.8711z" fill="#ff52bf"/><path d="m186.28 50.941 27.047-1.875-3.9531 18.816-26.977 1.8828z" fill="#ff52bf"/><path d="m174.78 106.67 26.791-1.8597-7.8535 37.634-27.008 1.9682z" fill="#675fff"/><path d="m144.66 146.02 4.9558-23.284-27.187 1.8953-4.9637 23.369z" fill="#675fff"/><path d="m131.23 82.805 76.074-5.3125-5.7344 27.391-76.035 5.3086z" fill="#200044"/><path d="m117.46 148 76.248-5.5531-5.7712 27.477-76.233 5.3287z" fill="#8da7ff"/><path d="m52.059 33.344 76.242-5.3281-5.7539 27.395-76.188 5.3125z" fill="url(#linearGradient10)"/><path d="m46.359 60.723 26.895-1.8789-5.9688 28.441-26.836 1.8711z" fill="#ff52bf"/><path d="m95.5 57.289 27.047-1.875-3.9531 18.816-26.977 1.8828z" fill="#ff52bf"/><path d="m83.994 112.83 26.791-1.8597-7.8535 38.072-27.008 1.9682z" fill="#675fff"/><path d="m40.445 89.152 76.074-5.3125-5.7344 27.391-76.035 5.3086z" fill="#200044"/><path d="m53.879 152.62 4.9558-23.534-27.187 1.8953-4.9637 23.619z" fill="#675fff"/><path d="m26.684 154.34 76.248-5.5531-5.7712 27.477-76.233 5.3287z" fill="#8da7ff"/></g><g transform="matrix(.77677 0 0 .77677 20.941 54.446)"><g fill="#e23229"><path class="cls-2" d="m109.24 253.61 41.87-200.64-59.68 4.17-7.36 35 25.46-1.78-34.52 165.64z"/><path class="cls-2" d="m248.01 141.4 20.16-96.62-26.09 1.92-95.51 112.14-5.07 24.16 65.06-4.5-14.45 69.34 34.23-2.39 14.45-69.24 27.61-1.89 7.24-34.78zm-32.83 5.11-20.11 1.38 26-29.61z"/></g></g></svg>
